<svg t="1706017611101" class="icon" viewBox="0 0 1024 1024" version="1.1" xmlns="http://www.w3.org/2000/svg" p-id="5480" width="200" height="200"><path d="M871.54 960H152.46c-30.93 0-56-25.07-56-56V310.72h831.07V904c0.01 30.93-25.07 56-55.99 56z" fill="#8C9EFF" p-id="5481"></path><path d="M927.54 310.72H96.46v-125.8c0-30.93 25.07-56 56-56h719.07c30.93 0 56 25.07 56 56v125.8z" fill="#E1F5FF" p-id="5482"></path><path d="M382.14 193.86c-11.6 0-21-9.4-21-21V85c0-11.6 9.4-21 21-21s21 9.4 21 21v87.86c0 11.59-9.4 21-21 21zM641.86 193.86c-11.6 0-21-9.4-21-21V85c0-11.6 9.4-21 21-21s21 9.4 21 21v87.86c0 11.59-9.41 21-21 21z" fill="#313FA0" p-id="5483"></path><path d="M745.74 492.52m-51.94 0a51.94 51.94 0 1 0 103.88 0 51.94 51.94 0 1 0-103.88 0Z" fill="#FFD600" p-id="5484"></path><path d="M512 492.52m-51.94 0a51.94 51.94 0 1 0 103.88 0 51.94 51.94 0 1 0-103.88 0Z" fill="#FFD600" p-id="5485"></path><path d="M512 700.29m-51.94 0a51.94 51.94 0 1 0 103.88 0 51.94 51.94 0 1 0-103.88 0Z" fill="#FFFFFF" p-id="5486"></path><path d="M278.26 492.52m-51.94 0a51.94 51.94 0 1 0 103.88 0 51.94 51.94 0 1 0-103.88 0Z" fill="#FFD600" p-id="5487"></path><path d="M278.26 700.29m-51.94 0a51.94 51.94 0 1 0 103.88 0 51.94 51.94 0 1 0-103.88 0Z" fill="#FFD600" p-id="5488"></path></svg>